<svg aria-hidden="true" style="position: absolute; width: 0; height: 0; overflow: hidden;" version="1.1" xmlns="http://www.w3.org/2000/svg" xmlns:xlink="http://www.w3.org/1999/xlink">
<defs>
<symbol id="icon-Vector" viewBox="0 0 144 32">
<path d="M4.797 16.006c0-2.546 1.011-4.988 2.812-6.788s4.242-2.812 6.788-2.812h115.2c2.546 0 4.988 1.011 6.788 2.812s2.812 4.242 2.812 6.788-1.011 4.988-2.812 6.788c-1.8 1.8-4.242 2.812-6.788 2.812h-115.2c-2.546 0-4.988-1.011-6.788-2.812s-2.812-4.242-2.812-6.788z"></path>
</symbol>
<symbol id="icon-Vector-1" viewBox="0 0 144 32">
<path d="M4.797 16.006c0-2.546 1.011-4.988 2.812-6.788s4.242-2.812 6.788-2.812h115.2c2.546 0 4.988 1.011 6.788 2.812s2.812 4.242 2.812 6.788-1.011 4.988-2.812 6.788c-1.8 1.8-4.242 2.812-6.788 2.812h-115.2c-2.546 0-4.988-1.011-6.788-2.812s-2.812-4.242-2.812-6.788z"></path>
</symbol>
<symbol id="icon-Vector-2" viewBox="0 0 144 32">
<path d="M4.797 16.006c0-2.546 1.011-4.988 2.812-6.788s4.242-2.812 6.788-2.812h115.2c2.546 0 4.988 1.011 6.788 2.812s2.812 4.242 2.812 6.788-1.011 4.988-2.812 6.788c-1.8 1.8-4.242 2.812-6.788 2.812h-115.2c-2.546 0-4.988-1.011-6.788-2.812s-2.812-4.242-2.812-6.788z"></path>
</symbol>
</defs>
</svg>
